<svg viewBox="0 0 1168 177"
     xmlns="http://www.w3.org/2000/svg"
     xml:space="preserve"
     style="fill-rule:evenodd;clip-rule:evenodd;stroke-linejoin:round;stroke-miterlimit:2">
    <defs>
        <linearGradient id="gradient-fill" x1="0" y1="0" x2="800" y2="0" gradientUnits="userSpaceOnUse">    <stop offset="0" stop-color="#ffc8c8"/>
            <stop offset="0.14285714285714285" stop-color="#fda3b8"/>
            <stop offset="0.2857142857142857" stop-color="#f57cb8"/>
            <stop offset="0.42857142857142855" stop-color="#db5fbf"/>
            <stop offset="0.5714285714285714" stop-color="#b056ba"/>
            <stop offset="0.7142857142857143" stop-color="#8451a8"/>
            <stop offset="0.8571428571428571" stop-color="#5d498c"/>
            <stop offset="1" stop-color="#3e3e6b"/>
        </linearGradient>
    </defs>
    <path
            d="m127.309 129.476 28.354-113.732c.905-3.63-1.842-7.144-5.583-7.144H86.754a5.752 5.752 0 0 0-5.583 4.36l-3.41 13.674c-.905 3.631 1.841 7.147 5.583 7.147h22.807c3.742 0 6.488 3.515 5.583 7.145l-23.857 95.695c-1.45 5.816-9.716 5.816-11.166 0L45.881 12.962A5.752 5.752 0 0 0 40.298 8.6h-25.79c-3.742 0-6.488 3.514-5.583 7.144l36.972 148.294a5.753 5.753 0 0 0 5.583 4.362h98.647a5.755 5.755 0 0 0 5.584-4.362l5.054-20.271c.905-3.63-1.841-7.146-5.583-7.146h-22.29c-3.743 0-6.488-3.515-5.583-7.145Zm994.531-15.538 14.94-49.148h22.47l-24.45 68.906h-26.05L1084.3 64.79h22.6l14.94 49.148Zm-63.72-21.364c0-3.621-1.24-6.502-3.71-8.644-2.47-2.138-5.55-3.209-9.26-3.209-3.54 0-6.52 1.029-8.95 3.087-2.43 2.059-3.93 4.981-4.51 8.767h26.43Zm21.24 11.731-47.79.001c.33 4.28 1.71 7.552 4.14 9.817 2.42 2.264 5.41 3.395 8.95 3.395 5.27.001 8.93-2.222 10.99-6.668h22.47c-1.15 4.529-3.23 8.604-6.23 12.226-3.01 3.624-6.77 6.464-11.3 8.521-4.53 2.058-9.59 3.087-15.19 3.087-6.75 0-12.76-1.44-18.03-4.322-5.27-2.881-9.38-6.997-12.35-12.349-2.96-5.351-4.44-11.608-4.44-18.77 0-7.162 1.46-13.418 4.38-18.77s7.02-9.467 12.29-12.35c5.27-2.881 11.32-4.321 18.15-4.321 6.67 0 12.6 1.4 17.78 4.198 5.19 2.799 9.24 6.793 12.17 11.979 2.92 5.186 4.38 11.237 4.38 18.152 0 1.976-.12 4.035-.37 6.175ZM973.963 86.77c-2.923-3.045-6.484-4.569-10.682-4.569s-7.76 1.503-10.681 4.507c-2.924 3.006-4.384 7.143-4.384 12.41 0 5.27 1.46 9.447 4.384 12.534 2.921 3.087 6.483 4.631 10.681 4.631 4.198 0 7.759-1.523 10.682-4.569 2.921-3.045 4.384-7.203 4.384-12.472 0-5.268-1.463-9.426-4.384-12.472Zm-43.221-6.298c2.674-5.352 6.318-9.467 10.929-12.35 4.609-2.881 9.755-4.321 15.436-4.321 4.526 0 8.663.948 12.41 2.84 3.745 1.894 6.688 4.445 8.83 7.655V42.313h21.116v91.382h-21.116v-9.88c-1.976 3.293-4.797 5.927-8.459 7.903-3.664 1.977-7.925 2.965-12.781 2.965-5.681 0-10.827-1.462-15.436-4.385-4.611-2.921-8.255-7.079-10.929-12.472-2.676-5.391-4.013-11.628-4.013-18.709 0-7.079 1.337-13.293 4.013-18.645Zm-33.834 50.937c-2.346-2.18-3.52-4.877-3.52-8.088 0-3.292 1.174-6.051 3.52-8.274 2.346-2.223 5.371-3.334 9.076-3.334 3.621 0 6.606 1.111 8.953 3.334 2.346 2.223 3.519 4.982 3.519 8.274 0 3.211-1.173 5.908-3.519 8.088-2.347 2.183-5.332 3.273-8.953 3.273-3.705 0-6.73-1.09-9.076-3.273Zm-22.721-59.521c4.815 5.229 7.224 12.411 7.224 21.549v40.257h-20.994V96.277c0-4.61-1.194-8.191-3.581-10.743-2.388-2.551-5.599-3.828-9.631-3.828-4.035 0-7.246 1.277-9.632 3.828-2.389 2.552-3.581 6.133-3.581 10.743v37.417h-21.117V64.788h21.117v9.138c2.139-3.045 5.02-5.453 8.644-7.224 3.621-1.768 7.697-2.655 12.225-2.655 8.067 0 14.51 2.616 19.326 7.841Zm-94.035 20.685c0-3.622-1.235-6.503-3.705-8.645-2.469-2.139-5.557-3.21-9.261-3.21-3.541 0-6.526 1.03-8.953 3.087-2.429 2.059-3.932 4.982-4.507 8.767h26.426Zm21.24 11.732h-47.79c.328 4.281 1.708 7.553 4.137 9.817 2.427 2.265 5.412 3.396 8.953 3.396 5.267 0 8.932-2.223 10.99-6.669h22.475c-1.154 4.529-3.232 8.604-6.237 12.226-3.005 3.624-6.772 6.464-11.298 8.521-4.529 2.059-9.592 3.088-15.189 3.088-6.751 0-12.762-1.441-18.029-4.322-5.27-2.882-9.385-6.998-12.349-12.35-2.964-5.351-4.446-11.608-4.446-18.77 0-7.162 1.461-13.417 4.384-18.769 2.922-5.352 7.018-9.467 12.287-12.35 5.268-2.881 11.319-4.321 18.153-4.321 6.668 0 12.595 1.4 17.782 4.198 5.186 2.799 9.24 6.793 12.163 11.979 2.921 5.186 4.384 11.237 4.384 18.152 0 1.975-.123 4.034-.37 6.174Zm-76.314 11.484v17.907h-10.743c-7.656 0-13.626-1.873-17.906-5.62-4.282-3.745-6.421-9.858-6.421-18.338V82.325h-8.397V64.789h8.397V47.995h21.116v16.794h13.831v17.536h-13.831v27.66c0 2.058.494 3.54 1.482 4.447.988.906 2.634 1.357 4.939 1.357h7.533Zm-60.323-43.9c4.816 5.23 7.224 12.412 7.224 21.549v40.257h-20.993V96.278c0-4.61-1.194-8.191-3.581-10.743-2.388-2.551-5.599-3.828-9.632-3.828-4.034 0-7.245 1.277-9.631 3.828-2.389 2.552-3.581 6.133-3.581 10.743v37.417h-21.117V64.789h21.117v9.138c2.139-3.045 5.02-5.453 8.644-7.224 3.621-1.768 7.696-2.655 12.225-2.655 8.067 0 14.509 2.616 19.325 7.841ZM562.634 86.771c-2.924-3.046-6.484-4.57-10.682-4.57-4.199 0-7.76 1.503-10.682 4.507-2.923 3.006-4.383 7.143-4.383 12.41 0 5.27 1.46 9.447 4.383 12.534 2.922 3.087 6.483 4.631 10.682 4.631 4.198 0 7.758-1.523 10.682-4.569 2.921-3.045 4.384-7.203 4.384-12.472 0-5.268-1.463-9.426-4.384-12.472Zm-43.222-6.298c2.675-5.351 6.318-9.466 10.93-12.349 4.609-2.881 9.755-4.321 15.436-4.321 4.856 0 9.117.987 12.781 2.963 3.662 1.976 6.482 4.568 8.459 7.779V64.79h21.116v68.906h-21.116v-9.756c-2.06 3.211-4.921 5.804-8.583 7.78-3.664 1.976-7.924 2.964-12.781 2.964-5.599 0-10.703-1.461-15.312-4.384-4.612-2.921-8.255-7.079-10.93-12.472-2.675-5.391-4.013-11.628-4.013-18.709 0-7.079 1.338-13.294 4.013-18.646Zm-41.303 35.811h29.884v17.412h-53.47v-16.794l28.649-34.7H454.77V64.79h52.605v16.794l-29.266 34.7ZM436.433 71.89c4.815 5.229 7.224 12.411 7.224 21.549v40.257h-20.994V96.279c0-4.61-1.194-8.191-3.581-10.743-2.388-2.551-5.599-3.828-9.631-3.828-4.035 0-7.246 1.277-9.632 3.828-2.389 2.552-3.581 6.133-3.581 10.743v37.417h-21.117V64.79h21.117v9.138c2.139-3.045 5.02-5.453 8.644-7.224 3.621-1.768 7.697-2.655 12.225-2.655 8.067 0 14.51 2.616 19.326 7.841ZM334.311 86.771c-2.923-3.045-6.483-4.569-10.681-4.569-4.199 0-7.76 1.503-10.682 4.507-2.923 3.006-4.384 7.143-4.384 12.41 0 5.27 1.461 9.447 4.384 12.534 2.922 3.087 6.483 4.631 10.682 4.631 4.198 0 7.758-1.523 10.681-4.569 2.921-3.045 4.384-7.203 4.384-12.472 0-5.268-1.463-9.426-4.384-12.472Zm-43.22-6.298c2.674-5.351 6.317-9.466 10.928-12.349 4.61-2.881 9.756-4.321 15.436-4.321 4.857 0 9.117.987 12.781 2.963 3.662 1.976 6.483 4.568 8.459 7.779V64.79h21.116v68.906h-21.116v-9.756c-2.059 3.211-4.92 5.804-8.582 7.78-3.664 1.976-7.925 2.964-12.781 2.964-5.6 0-10.703-1.461-15.313-4.384-4.611-2.921-8.254-7.079-10.928-12.472-2.676-5.391-4.013-11.628-4.013-18.709 0-7.079 1.337-13.294 4.013-18.646Zm-46.121 33.465 14.942-49.148h22.474l-24.451 68.906H231.88L207.43 64.79h22.598l14.942 49.148Z"
            fill="url(#gradient-fill)"
    />
</svg>
